<svg width="360" height="800" viewBox="0 0 360 800" fill="none" xmlns="http://www.w3.org/2000/svg">
<g clip-path="url(#clip0_1536_130)">
<g filter="url(#filter0_f_1536_130)">
<ellipse cx="180.414" cy="593.996" rx="380.256" ry="378.817" fill="#00BFA6" fill-opacity="0.6"/>
</g>
<g filter="url(#filter1_f_1536_130)">
<ellipse cx="167.853" cy="48.3437" rx="394.618" ry="359.53" fill="#6C63FF" fill-opacity="0.4"/>
</g>
<path d="M126.736 412.387C125.102 412.387 123.532 412.075 122.027 411.45C120.521 410.825 119.192 409.936 118.038 408.783C116.885 407.63 115.996 406.3 115.371 404.794C114.747 403.289 114.434 401.719 114.434 400.085C114.434 398.451 114.747 396.881 115.371 395.376C115.996 393.87 116.885 392.541 118.038 391.387C119.192 390.234 120.521 389.345 122.027 388.72C123.532 388.096 125.102 387.783 126.736 387.783C128.37 387.783 129.94 388.096 131.445 388.72C132.951 389.345 134.281 390.234 135.434 391.387C136.587 392.541 137.476 393.87 138.101 395.376C138.726 396.881 139.038 398.451 139.038 400.085C139.038 401.719 138.726 403.289 138.101 404.794C137.476 406.3 136.587 407.63 135.434 408.783C134.281 409.936 132.951 410.825 131.445 411.45C129.94 412.075 128.37 412.387 126.736 412.387ZM126.736 406.236C128.434 406.236 129.884 405.635 131.085 404.434C132.286 403.233 132.887 401.783 132.887 400.085C132.887 398.387 132.286 396.938 131.085 395.736C129.884 394.535 128.434 393.934 126.736 393.934C125.038 393.934 123.589 394.535 122.387 395.736C121.186 396.938 120.585 398.387 120.585 400.085C120.585 401.783 121.186 403.233 122.387 404.434C123.589 405.635 125.038 406.236 126.736 406.236ZM153.719 406.236C155.416 406.236 156.866 405.635 158.067 404.434C159.269 403.233 159.869 401.783 159.869 400.085C159.869 398.387 159.269 396.938 158.067 395.736C156.866 394.535 155.416 393.934 153.719 393.934C152.021 393.934 150.571 394.535 149.37 395.736C148.168 396.938 147.568 398.387 147.568 400.085C147.568 401.783 148.168 403.233 149.37 404.434C150.571 405.635 152.021 406.236 153.719 406.236ZM141.417 400.085C141.417 398.451 141.729 396.881 142.354 395.376C142.978 393.87 143.867 392.541 145.021 391.387C146.174 390.234 147.504 389.345 149.009 388.72C150.515 388.096 152.085 387.783 153.719 387.783C155.352 387.783 156.922 388.096 158.428 388.72C159.934 389.345 161.263 390.234 162.416 391.387C163.57 392.541 164.459 393.87 165.083 395.376C165.708 396.881 166.02 398.451 166.02 400.085C166.02 401.719 165.708 403.289 165.083 404.794C164.459 406.3 163.57 407.63 162.416 408.783C161.263 409.936 159.934 410.825 158.428 411.45C156.922 412.075 155.352 412.387 153.719 412.387C152.085 412.387 150.515 412.075 149.009 411.45C148.513 411.242 148.032 411.001 147.568 410.729V418.538H141.417V400.085ZM174.838 412.387H168.687V387.783H174.838V412.387ZM171.763 384.708C170.706 384.708 169.801 384.331 169.048 383.578C168.295 382.826 167.919 381.921 167.919 380.863C167.919 379.806 168.295 378.901 169.048 378.148C169.801 377.395 170.706 377.019 171.763 377.019C172.82 377.019 173.725 377.395 174.478 378.148C175.231 378.901 175.607 379.806 175.607 380.863C175.607 381.921 175.231 382.826 174.478 383.578C173.725 384.331 172.82 384.708 171.763 384.708ZM185.098 400.085V412.387H178.947V400.085C178.947 398.451 179.259 396.881 179.884 395.376C180.509 393.87 181.398 392.541 182.551 391.387C183.704 390.234 185.034 389.345 186.54 388.72C188.045 388.096 189.615 387.783 191.249 387.783C192.883 387.783 194.452 388.096 195.958 388.72C197.464 389.345 198.793 390.234 199.947 391.387C201.1 392.541 201.989 393.87 202.614 395.376C203.238 396.881 203.551 398.451 203.551 400.085V412.387H197.4V400.085C197.4 398.387 196.799 396.938 195.598 395.736C194.396 394.535 192.947 393.934 191.249 393.934C189.551 393.934 188.101 394.535 186.9 395.736C185.699 396.938 185.098 398.387 185.098 400.085ZM213.882 412.387H207.731V387.783H213.882V412.387ZM210.807 384.708C209.75 384.708 208.845 384.331 208.092 383.578C207.339 382.826 206.963 381.921 206.963 380.863C206.963 379.806 207.339 378.901 208.092 378.148C208.845 377.395 209.75 377.019 210.807 377.019C211.864 377.019 212.769 377.395 213.522 378.148C214.275 378.901 214.651 379.806 214.651 380.863C214.651 381.921 214.275 382.826 213.522 383.578C212.769 384.331 211.864 384.708 210.807 384.708ZM228.779 412.387C227.145 412.387 225.576 412.075 224.07 411.45C222.564 410.825 221.235 409.936 220.081 408.783C218.928 407.63 218.039 406.3 217.414 404.794C216.79 403.289 216.477 401.719 216.477 400.085C216.477 398.451 216.79 396.881 217.414 395.376C218.039 393.87 218.928 392.541 220.081 391.387C221.235 390.234 222.564 389.345 224.07 388.72C225.576 388.096 227.145 387.783 228.779 387.783C230.413 387.783 231.983 388.096 233.489 388.72C234.994 389.345 236.324 390.234 237.477 391.387C238.63 392.541 239.519 393.87 240.144 395.376C240.769 396.881 241.081 398.451 241.081 400.085C241.081 401.719 240.769 403.289 240.144 404.794C239.519 406.3 238.63 407.63 237.477 408.783C236.324 409.936 234.994 410.825 233.489 411.45C231.983 412.075 230.413 412.387 228.779 412.387ZM228.779 406.236C230.477 406.236 231.927 405.635 233.128 404.434C234.329 403.233 234.93 401.783 234.93 400.085C234.93 398.387 234.329 396.938 233.128 395.736C231.927 394.535 230.477 393.934 228.779 393.934C227.081 393.934 225.632 394.535 224.43 395.736C223.229 396.938 222.628 398.387 222.628 400.085C222.628 401.783 223.229 403.233 224.43 404.434C225.632 405.635 227.081 406.236 228.779 406.236ZM250.307 400.085V412.387H244.157V400.085C244.157 398.451 244.469 396.881 245.094 395.376C245.718 393.87 246.607 392.541 247.761 391.387C248.914 390.234 250.243 389.345 251.749 388.72C253.255 388.096 254.825 387.783 256.458 387.783C258.092 387.783 259.662 388.096 261.168 388.72C262.673 389.345 264.003 390.234 265.156 391.387C266.31 392.541 267.199 393.87 267.823 395.376C268.448 396.881 268.76 398.451 268.76 400.085V412.387H262.609V400.085C262.609 398.387 262.009 396.938 260.807 395.736C259.606 394.535 258.156 393.934 256.458 393.934C254.761 393.934 253.311 394.535 252.11 395.736C250.908 396.938 250.307 398.387 250.307 400.085Z" fill="#132450"/>
<path d="M279.709 412.387H273.558V381.632H279.709V412.387ZM290.785 402.968V412.387H284.635V381.632H290.785V397.202L300.781 387.783H309.238L296.936 400.085L309.238 412.387H300.781L290.785 402.968Z" fill="#00BFA6"/>
<path d="M101.452 399.978C101.452 411.406 92.1873 420.671 80.759 420.671C69.3308 420.671 60.0663 411.406 60.0663 399.978C60.0663 388.55 69.3308 379.286 80.759 379.286C92.1873 379.286 101.452 388.55 101.452 399.978Z" fill="#6C63FF" stroke="#132450" stroke-width="2.27329"/>
<path d="M107.716 374.369L107.717 374.369C108.236 374.055 108.856 373.956 109.447 374.091C110.038 374.225 110.554 374.584 110.888 375.093C111.191 375.558 111.322 376.115 111.255 376.667C111.188 377.219 110.929 377.729 110.523 378.107C110.503 378.126 110.484 378.145 110.465 378.166L110.266 378.351L110.255 378.361L109.471 379.112L109.471 379.112L109.465 379.118C106.417 382.08 103.212 385.713 100.188 389.14C98.8775 390.626 97.6011 392.072 96.3868 393.409C96.3769 393.42 96.3673 393.431 96.3579 393.442C88.6673 402.591 80.9806 415.99 76.288 424.204C75.5631 425.473 74.4702 425.951 73.3799 425.968C72.2273 425.986 71.1382 425.484 70.5697 424.85L70.5573 424.837L50.9104 403.63L50.8965 403.615C50.6783 403.388 50.5078 403.119 50.3953 402.824C50.2827 402.529 50.2305 402.215 50.2416 401.899C50.2528 401.584 50.3272 401.274 50.4603 400.987C50.5935 400.701 50.7825 400.445 51.0162 400.234C51.0489 400.205 51.0799 400.173 51.109 400.14L55.1122 395.573C55.5096 395.232 56.0095 395.034 56.5327 395.01C57.0758 394.986 57.6107 395.151 58.0459 395.479L58.0464 395.479L69.5726 404.138C70.0231 404.477 70.6535 404.434 71.0543 404.038C88.9925 386.311 99.1344 379.54 107.716 374.369Z" fill="#00BFA6" stroke="#132450" stroke-width="2.27329" stroke-linecap="round" stroke-linejoin="round"/>
</g>
<defs>
<filter id="filter0_f_1536_130" x="-683.842" y="-268.82" width="1728.51" height="1725.63" filterUnits="userSpaceOnUse" color-interpolation-filters="sRGB">
<feFlood flood-opacity="0" result="BackgroundImageFix"/>
<feBlend mode="normal" in="SourceGraphic" in2="BackgroundImageFix" result="shape"/>
<feGaussianBlur stdDeviation="242" result="effect1_foregroundBlur_1536_130"/>
</filter>
<filter id="filter1_f_1536_130" x="-710.766" y="-795.186" width="1757.24" height="1687.06" filterUnits="userSpaceOnUse" color-interpolation-filters="sRGB">
<feFlood flood-opacity="0" result="BackgroundImageFix"/>
<feBlend mode="normal" in="SourceGraphic" in2="BackgroundImageFix" result="shape"/>
<feGaussianBlur stdDeviation="242" result="effect1_foregroundBlur_1536_130"/>
</filter>
<clipPath id="clip0_1536_130">
<rect width="360" height="800" fill="white"/>
</clipPath>
</defs>
</svg>
